<svg xmlns="http://www.w3.org/2000/svg" fill="none" id="Playwright--Streamline-Svg-Logos" viewBox="1.04 13.31 97.92 73.37">
  <desc>
    Playwright Streamline Icon: https://streamlinehq.com
  </desc>
  <path fill="#2d4552" d="M33.31604166666667 54.7571875c-3.6552083333333334 1.0373958333333335 -6.053229166666667 2.856145833333333 -7.6329166666666675 4.673541666666667 1.5130208333333333 -1.3240625 3.5396875000000003 -2.5392708333333336 6.273645833333334 -3.314270833333334 2.79625 -0.7925000000000001 5.181770833333333 -0.7867708333333333 7.152916666666667 -0.40645833333333337v-1.5413541666666668c-1.6814583333333335 -0.15375000000000003 -3.609270833333334 -0.03125 -5.793645833333334 0.5885416666666666Zm-7.800000000000001 -12.957395833333335 -13.574791666666668 3.576354166666667s0.24739583333333334 0.34947916666666673 0.7054166666666667 0.8157291666666667l11.509791666666668 -3.0328125000000004s-0.163125 2.1016666666666666 -1.5794791666666668 3.981666666666667c2.679166666666667 -2.0269791666666666 2.9390625 -5.340937500000001 2.9390625 -5.340937500000001Zm11.363020833333334 31.903125000000003C17.775625 78.84822916666667 7.668677083333334 56.70937500000001 4.608697916666666 45.21843750000001c-1.41375 -5.304166666666666 -2.0308958333333336 -9.321250000000001 -2.195385416666667 -11.913645833333334 -0.017677083333333333 -0.2691666666666667 -0.009510416666666667 -0.4960416666666667 0.009520833333333334 -0.7039583333333334 -0.9909791666666667 0.059791666666666674 -1.4654229166666668 0.5748958333333333 -1.3688958333333334 2.063541666666667 0.16448958333333333 2.5909375 0.7816458333333335 6.6078125000000005 2.1953958333333334 11.913645833333334C6.3079479166666665 58.0671875 16.41625 80.20604166666666 35.51979166666666 75.06083333333335c4.158125 -1.1202083333333333 7.281979166666668 -3.1605208333333334 9.626979166666667 -5.765104166666667 -2.1614583333333335 1.9521875000000002 -4.866666666666667 3.4895833333333335 -8.267708333333335 4.4071875Zm3.5898958333333333 -45.45229166666667v1.3595833333333334h7.493125c-0.15375000000000003 -0.4813541666666667 -0.30864583333333334 -0.9151041666666667 -0.4623958333333334 -1.3595833333333334h-7.030729166666667Z" stroke-width="1.0417"/>
  <path fill="#2d4552" d="M49.63708333333334 39.447291666666665c3.369791666666667 0.9569791666666667 5.152083333333334 3.3195833333333336 6.094062500000001 5.410416666666667l3.757291666666667 1.0670833333333334s-0.5125000000000001 -7.317395833333334 -7.131354166666667 -9.1975c-6.191979166666667 -1.7592708333333336 -10.002395833333333 3.4404166666666667 -10.465833333333334 4.113333333333333 1.8012500000000002 -1.2833333333333334 4.4315625 -2.333958333333334 7.745833333333334 -1.3933333333333333Zm29.909062500000005 5.444166666666667c-6.197604166666667 -1.7671875 -10.0065625 3.443333333333334 -10.463229166666668 4.106770833333334 1.8026041666666668 -1.2817708333333333 4.4315625 -2.3328125 7.744375 -1.3879166666666667 3.3643750000000003 0.9585416666666667 5.145208333333334 3.3182291666666672 6.090104166666667 5.410520833333333l3.7627083333333338 1.0710416666666667s-0.5208333333333334 -7.318854166666667 -7.133958333333334 -9.200416666666667Zm-3.732916666666667 19.29375 -31.256145833333335 -8.738020833333335s0.3383333333333333 1.7155208333333334 1.6366666666666667 3.936875l26.316250000000004 7.356979166666668c2.1665625 -1.2535416666666668 3.303229166666667 -2.555833333333333 3.303229166666667 -2.555833333333333ZM54.14322916666667 82.99364583333335C29.394479166666667 76.35833333333333 32.38645833333334 44.82510416666667 36.39114583333333 29.88260416666667c1.6488541666666667 -6.157916666666667 3.3440625000000006 -10.734895833333335 4.749791666666667 -13.803020833333335 -0.8387500000000001 -0.17260416666666667 -1.5334375 0.2691666666666667 -2.2198958333333336 1.6652083333333334 -1.4926041666666667 3.0273958333333333 -3.4012500000000006 7.956458333333334 -5.2484375000000005 14.856666666666667 -4.003541666666667 14.942187500000001 -6.995625 46.474375 17.752083333333335 53.10968750000001 11.664791666666668 3.125 20.75197916666667 -1.6245833333333335 27.526041666666668 -9.083541666666667 -6.429895833333334 5.82375 -14.639270833333333 9.088854166666668 -24.8075 6.366041666666667Z" stroke-width="1.0417"/>
  <path fill="#e2574c" d="M40.46916666666667 66.31322916666667V59.95l-17.679895833333333 5.013333333333334s1.3063541666666667 -7.590625 10.526979166666667 -10.20625c2.79625 -0.7925000000000001 5.182083333333334 -0.7870833333333335 7.152916666666667 -0.40645833333333337V28.250520833333336h8.852395833333334c-0.9638541666666668 -2.9784375000000005 -1.8962500000000002 -5.271458333333333 -2.6793750000000003 -6.864791666666667 -1.2955208333333335 -2.6371875 -2.623541666666667 -0.8889583333333334 -5.638541666666668 1.6327083333333334 -2.123541666666667 1.7740625 -7.4903125 5.558541666666667 -15.566250000000002 7.734791666666667 -8.076145833333333 2.177604166666667 -14.605208333333335 1.6001041666666669 -17.32941666666667 1.1283333333333334 -3.862010416666667 -0.66625 -5.882052083333334 -1.514375 -5.693072916666667 1.4231250000000002 0.16445833333333335 2.5909375 0.7816458333333335 6.608125 2.195385416666667 11.913645833333334C7.668885416666667 56.70781250000001 17.7771875 78.84666666666668 36.880625 73.70145833333333c4.990104166666667 -1.3445833333333335 8.512291666666666 -4.0021875 10.95375 -7.389583333333334h-7.365208333333333v0.0013541666666666667ZM11.940104166666668 45.37604166666667l13.576145833333333 -3.576354166666667s-0.3957291666666667 5.222708333333333 -5.4852083333333335 6.564375000000001c-5.090833333333333 1.3403125 -8.0909375 -2.9880208333333336 -8.0909375 -2.9880208333333336Z" stroke-width="1.0417"/>
  <path fill="#2ead33" d="M91.5628125 28.552083333333336c-3.5289583333333336 0.6186458333333333 -11.9953125 1.3893750000000002 -22.458229166666666 -1.4151041666666668 -10.465833333333334 -2.8028125000000004 -17.409791666666667 -7.7048958333333335 -20.160937500000003 -10.0090625 -3.9000000000000004 -3.2665625 -5.615520833333334 -5.536770833333334 -7.303854166666667 -2.1029166666666668 -1.4926041666666667 3.028645833333334 -3.4013541666666667 7.9578125 -5.248854166666667 14.858020833333335 -4.003229166666667 14.942187500000001 -6.995208333333333 46.474375 17.7521875 53.10958333333333 24.742187500000004 6.6296875 37.914375 -22.175729166666667 41.91791666666667 -37.11927083333334 1.8475000000000001 -6.898854166666666 2.6576041666666668 -12.122916666666667 2.880520833333333 -15.49135416666667 0.25416666666666665 -3.815729166666667 -2.3667708333333337 -2.7081250000000003 -7.37875 -1.8298958333333335ZM41.840833333333336 40.914375s3.9000000000000004 -6.065625000000001 10.514687499999999 -4.185625000000001c6.618854166666667 1.8801041666666667 7.131354166666667 9.197604166666668 7.131354166666667 9.197604166666668l-17.64604166666667 -5.011979166666666ZM57.987500000000004 68.13333333333334c-11.634791666666667 -3.408229166666667 -13.429166666666667 -12.686041666666666 -13.429166666666667 -12.686041666666666l31.254687500000003 8.738333333333333c0 -0.0014583333333333334 -6.308750000000001 7.313229166666667 -17.825520833333336 3.947708333333334Zm11.050416666666667 -19.066875000000003s3.8945833333333333 -6.061458333333333 10.508020833333333 -4.176041666666667c6.613229166666667 1.8829166666666668 7.133958333333334 9.200416666666667 7.133958333333334 9.200416666666667l-17.641979166666665 -5.024375000000001Z" stroke-width="1.0417"/>
  <path fill="#d65348" d="M34.291250000000005 61.7021875 22.789583333333336 64.96197916666668s1.2493750000000001 -7.117604166666667 9.722291666666667 -9.938229166666666l-6.512812500000001 -24.4415625 -0.5628125 0.1710416666666667c-8.076041666666667 2.177916666666667 -14.605104166666667 1.6001041666666669 -17.329291666666666 1.1283333333333334 -3.8619895833333335 -0.6659375000000001 -5.882020833333334 -1.514375 -5.693072916666667 1.4234375000000001 0.16448958333333333 2.5909375 0.7816458333333335 6.6078125000000005 2.195385416666667 11.913541666666667 3.0586145833333336 11.489270833333334 13.166979166666668 33.628125000000004 32.2703125 28.482916666666668l0.5628125 -0.17677083333333332 -3.1511458333333335 -11.822500000000002ZM11.940416666666668 45.376250000000006l13.576145833333333 -3.5765625s-0.3957291666666667 5.222708333333333 -5.485104166666667 6.564375000000001c-5.0909375 1.3403125 -8.091041666666667 -2.9878125000000004 -8.091041666666667 -2.9878125000000004Z" stroke-width="1.0417"/>
  <path fill="#1d8d22" d="m58.51229166666667 68.26093750000001 -0.52625 -0.12791666666666668c-11.6346875 -3.407916666666667 -13.429166666666667 -12.685729166666668 -13.429166666666667 -12.685729166666668l16.116875 4.505 8.532604166666667 -32.788125 -0.10322916666666666 -0.027187500000000003c-10.465833333333334 -2.8028125000000004 -17.409375 -7.7048958333333335 -20.160937500000003 -10.0090625 -3.9000000000000004 -3.2665625 -5.615520833333334 -5.536770833333334 -7.303854166666667 -2.1029166666666668 -1.4911458333333334 3.028645833333334 -3.399895833333334 7.9578125 -5.247395833333333 14.858020833333335 -4.003229166666667 14.942187500000001 -6.995208333333333 46.474375 17.7521875 53.109375l0.5071875 0.11427083333333335 3.861979166666667 -14.845729166666667ZM41.840833333333336 40.91447916666667s3.9000000000000004 -6.065729166666667 10.514687499999999 -4.185729166666667c6.618854166666667 1.8801041666666667 7.131354166666667 9.197604166666668 7.131354166666667 9.197604166666668l-17.64604166666667 -5.011875Z" stroke-width="1.0417"/>
  <path fill="#c04b41" d="m34.877291666666665 61.53458333333334 -3.084479166666667 0.8754166666666667c0.7286458333333334 4.107916666666667 2.0130208333333335 8.050208333333334 4.0290625 11.532916666666667 0.35083333333333333 -0.0775 0.6988541666666668 -0.1440625 1.0562500000000001 -0.2419791666666667 0.9366666666666668 -0.25270833333333337 1.8052083333333335 -0.565625 2.6414583333333335 -0.9068750000000001 -2.2525 -3.342604166666667 -3.742604166666667 -7.192395833333334 -4.642291666666667 -11.259479166666669Zm-1.2044791666666668 -28.93291666666667c-1.5850000000000002 5.9159375 -3.0030208333333333 14.431041666666667 -2.6127083333333334 22.971875000000004 0.6986458333333333 -0.3032291666666667 1.4366666666666668 -0.5857291666666667 2.2564583333333332 -0.8183333333333334l0.5710416666666668 -0.12760416666666669c-0.6961458333333334 -9.123020833333335 0.8086458333333334 -18.419583333333335 2.503854166666667 -24.744791666666668 0.4296875 -1.6001041666666669 0.8605208333333333 -3.0884375000000004 1.29 -4.476458333333333 -0.6917708333333334 0.44031250000000005 -1.4366666666666668 0.8915625 -2.285104166666667 1.3564583333333335 -0.5721875000000001 1.7660416666666667 -1.1500000000000001 3.696354166666667 -1.723541666666667 5.838854166666667Z" stroke-width="1.0417"/>
</svg>